<?xml version="1.0" encoding="UTF-8"?>
<svg width="3300px" height="2200px" viewBox="0 0 3300 2200" xmlns="http://www.w3.org/2000/svg" xmlns:xlink="http://www.w3.org/1999/xlink" version="1.1">
 <!-- Generated by Pixelmator Pro 2.0.8 -->
 <g id="Notes">
  <path id="artboard" d="M0 0 L3300 0 3300 2200 0 2200 Z" fill="#ffffff" fill-opacity="1" stroke="none"/>
  <path id="Path" d="M263 292 L3036 292" fill="none" stroke="#000000" stroke-width="0.5" stroke-opacity="1" stroke-linejoin="round" stroke-linecap="round"/>
  <defs>
   <text id="string" transform="matrix(1.0 0.0 0.0 1.0 262.0 310.0)" font-family="SFPro-Regular, SF Pro" font-size="13" text-decoration="none" y="12.0" x="1.0">Weight/Scale Variations</text>
  </defs>
  <use id="Weight/Scale-Variations" xlink:href="#string" fill="#000000" fill-opacity="1" stroke="none"/>
  <defs>
   <text id="string-1" transform="matrix(1.0 0.0 0.0 1.0 529.0 310.0)" y="12.0" font-family="SFPro-Regular, SF Pro" text-decoration="none" x="1.124267578125" font-size="13">Ultralight</text>
  </defs>
  <use id="Ultralight" xlink:href="#string-1" fill="#000000" fill-opacity="1" stroke="none"/>
  <defs>
   <text id="string-2" transform="matrix(1.0 0.0 0.0 1.0 838.5 310.0)" font-family="SFPro-Regular, SF Pro" x="1.8095703125" y="12.0" font-size="13" text-decoration="none">Thin</text>
  </defs>
  <use id="Thin" xlink:href="#string-2" fill="#000000" fill-opacity="1" stroke="none"/>
  <defs>
   <text id="string-3" transform="matrix(1.0 0.0 0.0 1.0 1140.5 310.0)" font-family="SFPro-Regular, SF Pro" x="1.74658203125" y="12.0" font-size="13" text-decoration="none">Light</text>
  </defs>
  <use id="Light" xlink:href="#string-3" fill="#000000" fill-opacity="1" stroke="none"/>
  <defs>
   <text id="string-4" transform="matrix(1.0 0.0 0.0 1.0 1424.5 310.0)" font-family="SFPro-Regular, SF Pro" x="1.942138671875" y="12.0" font-size="13" text-decoration="none">Regular</text>
  </defs>
  <use id="Regular" xlink:href="#string-4" fill="#000000" fill-opacity="1" stroke="none"/>
  <defs>
   <text id="string-5" transform="matrix(1.0 0.0 0.0 1.0 1718.5 310.0)" x="1.786865234375" y="12.0" font-size="13" font-family="SFPro-Regular, SF Pro" text-decoration="none">Medium</text>
  </defs>
  <use id="Medium" xlink:href="#string-5" fill="#000000" fill-opacity="1" stroke="none"/>
  <defs>
   <text id="string-6" transform="matrix(1.0 0.0 0.0 1.0 2011.5 310.0)" font-size="13" x="1.718017578125" y="12.0" text-decoration="none" font-family="SFPro-Regular, SF Pro">Semibold</text>
  </defs>
  <use id="Semibold" xlink:href="#string-6" fill="#000000" fill-opacity="1" stroke="none"/>
  <defs>
   <text id="string-7" transform="matrix(1.0 0.0 0.0 1.0 2323.0 310.0)" x="1.4033203125" y="12.0" font-size="13" font-family="SFPro-Regular, SF Pro" text-decoration="none">Bold</text>
  </defs>
  <use id="Bold" xlink:href="#string-7" fill="#000000" fill-opacity="1" stroke="none"/>
  <defs>
   <text id="string-8" transform="matrix(1.0 0.0 0.0 1.0 2619.0 310.0)" text-decoration="none" font-size="13" x="1.14111328125" font-family="SFPro-Regular, SF Pro" y="12.0">Heavy</text>
  </defs>
  <use id="Heavy" xlink:href="#string-8" fill="#000000" fill-opacity="1" stroke="none"/>
  <defs>
   <text id="string-9" transform="matrix(1.0 0.0 0.0 1.0 2920.5 310.0)" font-size="13" text-decoration="none" font-family="SFPro-Regular, SF Pro" x="1.521484375" y="12.0">Black</text>
  </defs>
  <use id="Black" xlink:href="#string-9" fill="#000000" fill-opacity="1" stroke="none"/>
  <path id="Path-1" d="M263 1903 L3036 1903" fill="none" stroke="#000000" stroke-width="0.5" stroke-opacity="1" stroke-linejoin="round" stroke-linecap="round"/>
  <g id="group">
   <path id="Path-2" d="M272.248 1933.83 Q273.869 1933.83 275.295 1933.215 276.721 1932.6 277.81 1931.506 278.898 1930.412 279.519 1928.986 280.139 1927.561 280.139 1925.949 280.139 1924.338 279.519 1922.912 278.898 1921.486 277.805 1920.393 276.711 1919.299 275.285 1918.684 273.859 1918.068 272.238 1918.068 270.627 1918.068 269.201 1918.684 267.775 1919.299 266.691 1920.393 265.607 1921.486 264.987 1922.912 264.367 1924.338 264.367 1925.949 264.367 1927.561 264.987 1928.986 265.607 1930.412 266.696 1931.506 267.785 1932.6 269.211 1933.215 270.637 1933.83 272.248 1933.83 Z M272.248 1932.346 Q270.92 1932.346 269.763 1931.853 268.605 1931.359 267.731 1930.48 266.857 1929.602 266.364 1928.439 265.871 1927.277 265.871 1925.949 265.871 1924.621 266.359 1923.459 266.848 1922.297 267.722 1921.418 268.596 1920.539 269.753 1920.046 270.91 1919.553 272.238 1919.553 273.576 1919.553 274.733 1920.046 275.891 1920.539 276.77 1921.418 277.648 1922.297 278.146 1923.459 278.645 1924.621 278.645 1925.949 278.645 1927.277 278.151 1928.439 277.658 1929.602 276.784 1930.48 275.91 1931.359 274.748 1931.853 273.586 1932.346 272.248 1932.346 Z M268.84 1925.959 Q268.84 1926.281 269.045 1926.481 269.25 1926.682 269.592 1926.682 L271.506 1926.682 271.506 1928.605 Q271.506 1928.938 271.706 1929.143 271.906 1929.348 272.229 1929.348 272.561 1929.348 272.766 1929.143 272.971 1928.938 272.971 1928.605 L272.971 1926.682 274.895 1926.682 Q275.227 1926.682 275.432 1926.481 275.637 1926.281 275.637 1925.959 275.637 1925.627 275.432 1925.422 275.227 1925.217 274.895 1925.217 L272.971 1925.217 272.971 1923.303 Q272.971 1922.961 272.766 1922.756 272.561 1922.551 272.229 1922.551 271.906 1922.551 271.706 1922.756 271.506 1922.961 271.506 1923.303 L271.506 1925.217 269.592 1925.217 Q269.25 1925.217 269.045 1925.422 268.84 1925.627 268.84 1925.959 Z" fill="#000000" fill-opacity="1" stroke="none"/>
  </g>
  <g id="group-1">
   <path id="Path-3" d="M293.576 1935.91 Q295.617 1935.91 297.419 1935.129 299.221 1934.348 300.598 1932.971 301.974 1931.594 302.756 1929.792 303.537 1927.99 303.537 1925.949 303.537 1923.908 302.756 1922.106 301.974 1920.305 300.598 1918.928 299.221 1917.551 297.414 1916.77 295.607 1915.988 293.566 1915.988 291.525 1915.988 289.723 1916.77 287.922 1917.551 286.55 1918.928 285.178 1920.305 284.396 1922.106 283.615 1923.908 283.615 1925.949 283.615 1927.99 284.396 1929.792 285.178 1931.594 286.555 1932.971 287.931 1934.348 289.733 1935.129 291.535 1935.91 293.576 1935.91 Z M293.576 1934.25 Q291.847 1934.25 290.344 1933.605 288.84 1932.961 287.702 1931.823 286.564 1930.686 285.925 1929.182 285.285 1927.678 285.285 1925.949 285.285 1924.221 285.925 1922.717 286.564 1921.213 287.697 1920.07 288.83 1918.928 290.334 1918.288 291.838 1917.648 293.566 1917.648 295.295 1917.648 296.799 1918.288 298.302 1918.928 299.445 1920.07 300.588 1921.213 301.232 1922.717 301.877 1924.221 301.877 1925.949 301.877 1927.678 301.237 1929.182 300.598 1930.686 299.46 1931.823 298.322 1932.961 296.813 1933.605 295.305 1934.25 293.576 1934.25 Z M289.26 1925.959 Q289.26 1926.311 289.494 1926.535 289.728 1926.76 290.099 1926.76 L292.746 1926.76 292.746 1929.426 Q292.746 1929.787 292.97 1930.017 293.195 1930.246 293.547 1930.246 293.918 1930.246 294.152 1930.017 294.387 1929.787 294.387 1929.426 L294.387 1926.76 297.043 1926.76 Q297.404 1926.76 297.638 1926.535 297.873 1926.311 297.873 1925.959 297.873 1925.588 297.638 1925.358 297.404 1925.129 297.043 1925.129 L294.387 1925.129 294.387 1922.482 Q294.387 1922.102 294.152 1921.872 293.918 1921.643 293.547 1921.643 293.195 1921.643 292.97 1921.872 292.746 1922.102 292.746 1922.482 L292.746 1925.129 290.099 1925.129 Q289.719 1925.129 289.489 1925.358 289.26 1925.588 289.26 1925.959 Z" fill="#000000" fill-opacity="1" stroke="none"/>
  </g>
  <g id="group-2">
   <path id="Path-4" d="M320.617 1938.664 Q322.706 1938.664 324.606 1938.015 326.505 1937.365 328.097 1936.193 329.689 1935.021 330.866 1933.43 332.042 1931.838 332.692 1929.934 333.341 1928.029 333.341 1925.949 333.341 1923.859 332.692 1921.96 332.042 1920.061 330.866 1918.469 329.689 1916.877 328.097 1915.7 326.505 1914.523 324.601 1913.874 322.697 1913.225 320.607 1913.225 318.517 1913.225 316.618 1913.874 314.718 1914.523 313.131 1915.7 311.544 1916.877 310.368 1918.469 309.191 1920.061 308.546 1921.96 307.902 1923.859 307.902 1925.949 307.902 1928.029 308.551 1929.934 309.201 1931.838 310.373 1933.43 311.544 1935.021 313.136 1936.193 314.728 1937.365 316.627 1938.015 318.527 1938.664 320.617 1938.664 Z M320.617 1936.848 Q318.81 1936.848 317.174 1936.296 315.539 1935.744 314.181 1934.748 312.824 1933.752 311.823 1932.39 310.822 1931.027 310.275 1929.392 309.728 1927.756 309.728 1925.949 309.728 1924.133 310.275 1922.497 310.822 1920.861 311.818 1919.499 312.814 1918.137 314.171 1917.141 315.529 1916.145 317.165 1915.598 318.8 1915.051 320.607 1915.051 322.423 1915.051 324.059 1915.598 325.695 1916.145 327.057 1917.141 328.419 1918.137 329.415 1919.499 330.412 1920.861 330.963 1922.497 331.515 1924.133 331.515 1925.949 331.525 1927.756 330.978 1929.392 330.431 1931.027 329.43 1932.39 328.429 1933.752 327.067 1934.748 325.705 1935.744 324.069 1936.296 322.433 1936.848 320.617 1936.848 Z M315.099 1925.959 Q315.099 1926.34 315.358 1926.589 315.617 1926.838 316.017 1926.838 L319.708 1926.838 319.708 1930.539 Q319.708 1930.939 319.957 1931.193 320.206 1931.447 320.587 1931.447 320.998 1931.447 321.251 1931.193 321.505 1930.939 321.505 1930.539 L321.505 1926.838 325.206 1926.838 Q325.607 1926.838 325.861 1926.589 326.115 1926.34 326.115 1925.959 326.115 1925.549 325.861 1925.295 325.607 1925.041 325.206 1925.041 L321.505 1925.041 321.505 1921.35 Q321.505 1920.939 321.251 1920.686 320.998 1920.432 320.587 1920.432 320.206 1920.432 319.957 1920.69 319.708 1920.949 319.708 1921.35 L319.708 1925.041 316.017 1925.041 Q315.607 1925.041 315.353 1925.295 315.099 1925.549 315.099 1925.959 Z" fill="#000000" fill-opacity="1" stroke="none"/>
  </g>
  <defs>
   <text id="string-10" transform="matrix(1.0 0.0 0.0 1.0 262.0 1941.0)" font-size="13" text-decoration="none" font-family="SFPro-Regular, SF Pro" x="1.0" y="12.0">Design Variations</text>
  </defs>
  <use id="Design-Variations" xlink:href="#string-10" fill="#000000" fill-opacity="1" stroke="none"/>
  <defs>
   <text id="string-11" transform="matrix(1.0 0.0 0.0 1.0 262.0 1959.0)" y="12.0" font-family="SFPro-Regular, SF Pro" x="1.0" font-size="13" text-decoration="none">Symbols are supported in up to nine weights and three scales.</text>
  </defs>
  <use id="Symbols-are-supported-in-up-to-nine-weights-and-three-scales." xlink:href="#string-11" fill="#000000" fill-opacity="1" stroke="none"/>
  <defs>
   <text id="string-12" transform="matrix(1.0 0.0 0.0 1.0 262.0 1977.0)" font-size="13" font-family="SFPro-Regular, SF Pro" text-decoration="none" y="12.0" x="1.0">For optimal layout with text and other symbols, vertically align</text>
  </defs>
  <use id="For-optimal-layout-with-text-and-other-symbols,-vertically-align" xlink:href="#string-12" fill="#000000" fill-opacity="1" stroke="none"/>
  <defs>
   <text id="string-13" transform="matrix(1.0 0.0 0.0 1.0 262.0 1995.0)" font-size="13" font-family="SFPro-Regular, SF Pro" text-decoration="none" y="12.0" x="1.0">symbols with the adjacent text.</text>
  </defs>
  <use id="symbols-with-the-adjacent-text." xlink:href="#string-13" fill="#000000" fill-opacity="1" stroke="none"/>
  <path id="Path-5" d="M776 1919 L776 1933" fill="none" stroke="#00aeef" stroke-width="0.5" stroke-opacity="1" stroke-linejoin="round" stroke-linecap="round"/>
  <g id="group-3">
   <path id="Path-6" d="M779.311 1933.156 Q779.701 1933.156 779.916 1932.99 780.131 1932.824 780.268 1932.414 L781.527 1928.967 787.289 1928.967 788.549 1932.414 Q788.685 1932.824 788.9 1932.99 789.115 1933.156 789.496 1933.156 789.887 1933.156 790.116 1932.941 790.346 1932.727 790.346 1932.355 790.346 1932.131 790.238 1931.828 L785.658 1919.631 Q785.482 1919.182 785.18 1918.957 784.877 1918.732 784.408 1918.732 783.5 1918.732 783.178 1919.621 L778.598 1931.838 Q778.49 1932.141 778.49 1932.365 778.49 1932.736 778.71 1932.946 778.93 1933.156 779.311 1933.156 Z M782.006 1927.482 L784.379 1920.91 784.428 1920.91 786.801 1927.482 Z" fill="#000000" fill-opacity="1" stroke="none"/>
  </g>
  <path id="Path-7" d="M793.197 1919 L793.197 1933" fill="none" stroke="#00aeef" stroke-width="0.5" stroke-opacity="1" stroke-linejoin="round" stroke-linecap="round"/>
  <defs>
   <text id="string-14" transform="matrix(1.0 0.0 0.0 1.0 775.0 1941.0)" font-family="SFPro-Regular, SF Pro" y="12.0" font-size="13" text-decoration="none" x="1.0">Margins</text>
  </defs>
  <use id="Margins" xlink:href="#string-14" fill="#000000" fill-opacity="1" stroke="none"/>
  <defs>
   <text id="string-15" transform="matrix(1.0 0.0 0.0 1.0 775.0 1959.0)" font-size="13" x="1.0" text-decoration="none" y="12.0" font-family="SFPro-Regular, SF Pro">Leading and trailing margins on the left and right side of each symbol</text>
  </defs>
  <use id="Leading-and-trailing-margins-on-the-left-and-right-side-of-each-symbol" xlink:href="#string-15" fill="#000000" fill-opacity="1" stroke="none"/>
  <defs>
   <text id="string-16" transform="matrix(1.0 0.0 0.0 1.0 775.0 1977.0)" font-size="13" x="1.0" y="12.0" font-family="SFPro-Regular, SF Pro" text-decoration="none">can be adjusted by modifying the x-location of the margin guidelines.</text>
  </defs>
  <use id="can-be-adjusted-by-modifying-the-x-location-of-the-margin-guidelines." xlink:href="#string-16" fill="#000000" fill-opacity="1" stroke="none"/>
  <defs>
   <text id="string-17" transform="matrix(1.0 0.0 0.0 1.0 775.0 1995.0)" y="12.0" font-family="SFPro-Regular, SF Pro" text-decoration="none" x="1.0" font-size="13">Modifications are automatically applied proportionally to all</text>
  </defs>
  <use id="Modifications-are-automatically-applied-proportionally-to-all" xlink:href="#string-17" fill="#000000" fill-opacity="1" stroke="none"/>
  <defs>
   <text id="string-18" transform="matrix(1.0 0.0 0.0 1.0 775.0 2013.0)" font-family="SFPro-Regular, SF Pro" y="12.0" font-size="13" x="1.0" text-decoration="none">scales and weights.</text>
  </defs>
  <use id="scales-and-weights." xlink:href="#string-18" fill="#000000" fill-opacity="1" stroke="none"/>
  <g id="group-4">
   <path id="Path-8" d="M1291.842 1934.865 L1293.541 1936.574 Q1294.186 1937.229 1294.903 1937.18 1295.621 1937.131 1296.314 1936.359 L1307.008 1924.572 1306.041 1923.596 1295.426 1935.275 Q1295.162 1935.578 1294.894 1935.617 1294.625 1935.656 1294.273 1935.305 L1293.102 1934.143 Q1292.75 1933.791 1292.794 1933.522 1292.838 1933.254 1293.141 1932.98 L1304.615 1922.18 1303.639 1921.213 1292.047 1932.102 Q1291.305 1932.785 1291.251 1933.498 1291.197 1934.211 1291.842 1934.865 Z M1298.258 1916.672 Q1297.945 1916.975 1297.906 1917.365 1297.867 1917.756 1298.043 1918.049 1298.219 1918.322 1298.556 1918.459 1298.893 1918.596 1299.381 1918.479 1300.475 1918.225 1301.598 1918.269 1302.721 1918.313 1303.795 1919.016 L1303.209 1920.471 Q1302.955 1921.096 1303.067 1921.56 1303.18 1922.023 1303.58 1922.434 L1305.875 1924.748 Q1306.236 1925.119 1306.578 1925.178 1306.92 1925.236 1307.34 1925.158 L1308.404 1924.963 1309.068 1925.637 1309.029 1926.193 Q1309 1926.564 1309.122 1926.877 1309.244 1927.189 1309.605 1927.551 L1310.367 1928.293 Q1310.729 1928.654 1311.153 1928.669 1311.578 1928.684 1311.93 1928.332 L1314.84 1925.412 Q1315.191 1925.061 1315.182 1924.646 1315.172 1924.23 1314.811 1923.869 L1314.039 1923.107 Q1313.688 1922.746 1313.38 1922.614 1313.072 1922.482 1312.711 1922.512 L1312.135 1922.561 1311.49 1921.926 1311.734 1920.803 Q1311.832 1920.383 1311.695 1920.017 1311.559 1919.65 1311.119 1919.211 L1308.922 1917.023 Q1307.672 1915.783 1306.261 1915.163 1304.85 1914.543 1303.419 1914.519 1301.988 1914.494 1300.665 1915.041 1299.342 1915.588 1298.258 1916.672 Z M1299.752 1917.043 Q1300.66 1916.379 1301.7 1916.096 1302.74 1915.813 1303.805 1915.915 1304.869 1916.018 1305.87 1916.486 1306.871 1916.955 1307.701 1917.795 L1310.133 1920.207 Q1310.309 1920.383 1310.353 1920.549 1310.396 1920.715 1310.338 1920.969 L1310.016 1922.453 1311.52 1923.938 1312.506 1923.879 Q1312.691 1923.869 1312.789 1923.903 1312.887 1923.938 1313.033 1924.084 L1313.609 1924.66 1311.168 1927.102 1310.592 1926.525 Q1310.445 1926.379 1310.406 1926.281 1310.367 1926.184 1310.377 1925.988 L1310.445 1925.012 1308.951 1923.527 1307.428 1923.781 Q1307.184 1923.83 1307.042 1923.796 1306.9 1923.762 1306.715 1923.586 L1304.713 1921.584 Q1304.518 1921.408 1304.493 1921.247 1304.469 1921.086 1304.586 1920.813 L1305.465 1918.723 Q1304.293 1917.629 1302.828 1917.209 1301.363 1916.789 1299.84 1917.238 1299.723 1917.268 1299.688 1917.194 1299.654 1917.121 1299.752 1917.043 Z" fill="#000000" fill-opacity="1" stroke="none"/>
  </g>
  <defs>
   <text id="string-19" transform="matrix(1.0 0.0 0.0 1.0 1288.0 1941.0)" x="1.0" font-family="SFPro-Regular, SF Pro" text-decoration="none" font-size="13" y="12.0">Exporting</text>
  </defs>
  <use id="Exporting" xlink:href="#string-19" fill="#000000" fill-opacity="1" stroke="none"/>
  <defs>
   <text id="string-20" transform="matrix(1.0 0.0 0.0 1.0 1288.0 1959.0)" font-family="SFPro-Regular, SF Pro" x="1.0" y="12.0" font-size="13" text-decoration="none">Symbols should be outlined when exporting to ensure the</text>
  </defs>
  <use id="Symbols-should-be-outlined-when-exporting-to-ensure-the" xlink:href="#string-20" fill="#000000" fill-opacity="1" stroke="none"/>
  <defs>
   <text id="string-21" transform="matrix(1.0 0.0 0.0 1.0 1288.0 1977.0)" y="12.0" font-family="SFPro-Regular, SF Pro" text-decoration="none" x="1.0" font-size="13">design is preserved when submitting to Xcode.</text>
  </defs>
  <use id="design-is-preserved-when-submitting-to-Xcode." xlink:href="#string-21" fill="#000000" fill-opacity="1" stroke="none"/>
  <defs>
   <text id="string-22" transform="matrix(1.0 0.0 0.0 1.0 2955.0 1921.0)" y="12.0" font-family="SFPro-Regular, SF Pro" text-decoration="none" x="1.43408203125" font-size="13">Template v.3.0</text>
  </defs>
  <use id="Template-v.3.0" xlink:href="#string-22" fill="#000000" fill-opacity="1" stroke="none"/>
  <defs>
   <text id="string-23" transform="matrix(1.0 0.0 0.0 1.0 2864.0 1939.0)" font-family="SFPro-Regular, SF Pro" y="12.0" x="1.220703125" text-decoration="none" font-size="13">Requires Xcode 13 or greater</text>
  </defs>
  <use id="Requires-Xcode-13-or-greater" xlink:href="#string-23" fill="#000000" fill-opacity="1" stroke="none"/>
  <defs>
   <text id="string-24" transform="matrix(1.0 0.0 0.0 1.0 2886.0 1957.0)" font-family="SFPro-Regular, SF Pro" y="12.0" x="1.04443359375" text-decoration="none" font-size="13">Generated from rectangle</text>
  </defs>
  <use id="Generated-from-rectangle" xlink:href="#string-24" fill="#000000" fill-opacity="1" stroke="none"/>
  <defs>
   <text id="string-25" transform="matrix(1.0 0.0 0.0 1.0 2911.0 1975.0)" text-decoration="none" y="12.0" x="1.72705078125" font-size="13" font-family="SFPro-Regular, SF Pro">Typeset at 100 points</text>
  </defs>
  <use id="Typeset-at-100-points" xlink:href="#string-25" fill="#000000" fill-opacity="1" stroke="none"/>
  <defs>
   <text id="string-26" transform="matrix(1.0 0.0 0.0 1.0 262.0 714.0)" y="12.0" text-decoration="none" font-size="13" x="1.0" font-family="SFPro-Regular, SF Pro">Small</text>
  </defs>
  <use id="Small" xlink:href="#string-26" fill="#000000" fill-opacity="1" stroke="none"/>
  <defs>
   <text id="string-27" transform="matrix(1.0 0.0 0.0 1.0 262.0 1144.0)" font-size="13" font-family="SFPro-Regular, SF Pro" text-decoration="none" y="12.0" x="1.0">Medium</text>
  </defs>
  <use id="Medium-1" xlink:href="#string-27" fill="#000000" fill-opacity="1" stroke="none"/>
  <defs>
   <text id="string-28" transform="matrix(1.0 0.0 0.0 1.0 262.0 1574.0)" font-size="13" font-family="SFPro-Regular, SF Pro" text-decoration="none" y="12.0" x="1.0">Large</text>
  </defs>
  <use id="Large" xlink:href="#string-28" fill="#000000" fill-opacity="1" stroke="none"/>
 </g>
 <g id="Guides">
  <g id="H-reference">
   <path id="Path-9" d="M339.977 696 L342.662 696 368.346 628.861 369.029 628.861 369.029 625.541 367.125 625.541 Z M350.67 671.537 L385.973 671.537 385.24 669.291 351.451 669.291 Z M394.127 696 L396.764 696 369.615 625.541 368.443 625.541 368.443 628.861 Z" fill="#27aae1" fill-opacity="1" stroke="none"/>
  </g>
  <path id="Baseline-S" d="M263 696 L3036 696" fill="none" stroke="#27aae1" stroke-width="0.5" stroke-opacity="1" stroke-linejoin="round" stroke-linecap="round"/>
  <path id="Capline-S" d="M263 625.541 L3036 625.541" fill="none" stroke="#27aae1" stroke-width="0.5" stroke-opacity="1" stroke-linejoin="round" stroke-linecap="round"/>
  <g id="H-reference-1">
   <path id="Path-10" d="M339.977 1126 L342.662 1126 368.346 1058.861 369.029 1058.861 369.029 1055.541 367.125 1055.541 Z M350.67 1101.537 L385.973 1101.537 385.24 1099.291 351.451 1099.291 Z M394.127 1126 L396.764 1126 369.615 1055.541 368.443 1055.541 368.443 1058.861 Z" fill="#27aae1" fill-opacity="1" stroke="none"/>
  </g>
  <path id="Baseline-M" d="M263 1126 L3036 1126" fill="none" stroke="#27aae1" stroke-width="0.5" stroke-opacity="1" stroke-linejoin="round" stroke-linecap="round"/>
  <path id="Capline-M" d="M263 1055.54 L3036 1055.54" fill="none" stroke="#27aae1" stroke-width="0.5" stroke-opacity="1" stroke-linejoin="round" stroke-linecap="round"/>
  <g id="H-reference-2">
   <path id="Path-11" d="M339.977 1556 L342.662 1556 368.346 1488.861 369.029 1488.861 369.029 1485.541 367.125 1485.541 Z M350.67 1531.537 L385.973 1531.537 385.24 1529.291 351.451 1529.291 Z M394.127 1556 L396.764 1556 369.615 1485.541 368.443 1485.541 368.443 1488.861 Z" fill="#27aae1" fill-opacity="1" stroke="none"/>
  </g>
  <path id="Baseline-L" d="M263 1556 L3036 1556" fill="none" stroke="#27aae1" stroke-width="0.5" stroke-opacity="1" stroke-linejoin="round" stroke-linecap="round"/>
  <path id="Capline-L" d="M263 1485.54 L3036 1485.54" fill="none" stroke="#27aae1" stroke-width="0.5" stroke-opacity="1" stroke-linejoin="round" stroke-linecap="round"/>
  <path id="left-margin-Regular-M" d="M1379.82 1030.79 L1379.82 1150.12" fill="none" stroke="#00aeef" stroke-width="0.5" stroke-opacity="1" stroke-linejoin="round" stroke-linecap="round"/>
  <path id="right-margin-Regular-M" d="M1519.86 1030.79 L1519.86 1150.12" fill="none" stroke="#00aeef" stroke-width="0.5" stroke-opacity="1" stroke-linejoin="round" stroke-linecap="round"/>
 </g>
 <g id="Symbols">
  <g id="Black-L">
   <path id="Path-12" d="M2881.5 1582.514 L2985.309 1582.514 Q2996.735 1582.514 3002.985 1576.313 3009.235 1570.111 3009.235 1558.686 L3009.235 1482.904 Q3009.235 1471.527 3002.985 1465.326 2996.735 1459.125 2985.309 1459.125 L2881.5 1459.125 Q2870.074 1459.125 2863.824 1465.326 2857.574 1471.527 2857.574 1482.904 L2857.574 1558.686 Q2857.574 1570.111 2863.824 1576.313 2870.074 1582.514 2881.5 1582.514 Z M2884.186 1562.299 Q2881.061 1562.299 2879.449 1560.785 2877.838 1559.271 2877.838 1555.854 L2877.838 1485.785 Q2877.838 1482.367 2879.449 1480.854 2881.061 1479.34 2884.186 1479.34 L2982.574 1479.34 Q2985.748 1479.34 2987.36 1480.854 2988.971 1482.367 2988.971 1485.785 L2988.971 1555.854 Q2988.971 1559.271 2987.36 1560.785 2985.748 1562.299 2982.574 1562.299 Z" fill="#000000" fill-opacity="1" stroke="none"/>
  </g>
  <g id="Heavy-L">
   <path id="Path-13" d="M2584.048 1581.488 L2689.322 1581.488 Q2700.259 1581.488 2706.168 1575.629 2712.076 1569.77 2712.076 1558.832 L2712.076 1482.758 Q2712.076 1471.869 2706.168 1466.01 2700.259 1460.15 2689.322 1460.15 L2584.048 1460.15 Q2573.111 1460.15 2567.203 1465.985 2561.294 1471.82 2561.294 1482.758 L2561.294 1558.832 Q2561.294 1569.77 2567.203 1575.629 2573.111 1581.488 2584.048 1581.488 Z M2586.148 1564.008 Q2582.535 1564.008 2580.679 1562.226 2578.824 1560.443 2578.824 1556.586 L2578.824 1485.053 Q2578.824 1481.195 2580.679 1479.413 2582.535 1477.631 2586.148 1477.631 L2687.173 1477.631 Q2690.787 1477.631 2692.667 1479.413 2694.546 1481.195 2694.546 1485.053 L2694.546 1556.586 Q2694.546 1560.443 2692.667 1562.226 2690.787 1564.008 2687.173 1564.008 Z" fill="#000000" fill-opacity="1" stroke="none"/>
  </g>
  <g id="Bold-L">
   <path id="Path-14" d="M2286.559 1580.365 L2393.395 1580.365 Q2403.844 1580.365 2409.362 1574.896 2414.879 1569.428 2414.879 1559.027 L2414.879 1482.563 Q2414.879 1472.211 2409.362 1466.718 2403.844 1461.225 2393.395 1461.225 L2286.559 1461.225 Q2276.11 1461.225 2270.592 1466.693 2265.074 1472.162 2265.074 1482.563 L2265.074 1559.027 Q2265.074 1569.428 2270.592 1574.896 2276.11 1580.365 2286.559 1580.365 Z M2287.975 1565.912 Q2283.873 1565.912 2281.7 1563.813 2279.528 1561.713 2279.528 1557.367 L2279.528 1484.223 Q2279.528 1479.877 2281.7 1477.777 2283.873 1475.678 2287.975 1475.678 L2391.979 1475.678 Q2396.08 1475.678 2398.253 1477.777 2400.426 1479.877 2400.426 1484.223 L2400.426 1557.367 Q2400.426 1561.713 2398.253 1563.813 2396.08 1565.912 2391.979 1565.912 Z" fill="#000000" fill-opacity="1" stroke="none"/>
  </g>
  <g id="Semibold-L">
   <path id="Path-15" d="M1989.261 1579.535 L2097.22 1579.535 Q2107.328 1579.535 2112.577 1574.335 2117.826 1569.135 2117.826 1559.174 L2117.826 1482.416 Q2117.826 1472.455 2112.577 1467.23 2107.328 1462.006 2097.22 1462.006 L1989.261 1462.006 Q1979.203 1462.006 1973.953 1467.206 1968.704 1472.406 1968.704 1482.416 L1968.704 1559.174 Q1968.704 1569.184 1973.953 1574.359 1979.203 1579.535 1989.261 1579.535 Z M1990.238 1567.23 Q1985.745 1567.23 1983.402 1564.911 1981.058 1562.592 1981.058 1557.904 L1981.058 1483.637 Q1981.058 1478.949 1983.402 1476.654 1985.745 1474.359 1990.238 1474.359 L2096.292 1474.359 Q2100.687 1474.359 2103.079 1476.654 2105.472 1478.949 2105.472 1483.637 L2105.472 1557.904 Q2105.472 1562.592 2103.079 1564.911 2100.687 1567.23 2096.292 1567.23 Z" fill="#000000" fill-opacity="1" stroke="none"/>
  </g>
  <g id="Medium-L">
   <path id="Path-16" d="M1692.108 1578.949 L1800.945 1578.949 Q1810.76 1578.949 1815.814 1573.944 1820.867 1568.939 1820.867 1559.223 L1820.867 1482.367 Q1820.867 1472.65 1815.814 1467.621 1810.76 1462.592 1800.945 1462.592 L1692.108 1462.592 Q1682.342 1462.592 1677.288 1467.597 1672.234 1472.602 1672.234 1482.367 L1672.234 1559.223 Q1672.234 1568.988 1677.288 1573.969 1682.342 1578.949 1692.108 1578.949 Z M1692.742 1568.207 Q1688.006 1568.207 1685.491 1565.741 1682.977 1563.275 1682.977 1558.344 L1682.977 1483.246 Q1682.977 1478.266 1685.491 1475.8 1688.006 1473.334 1692.742 1473.334 L1800.311 1473.334 Q1804.998 1473.334 1807.537 1475.8 1810.076 1478.266 1810.076 1483.246 L1810.076 1558.344 Q1810.076 1563.275 1807.537 1565.741 1804.998 1568.207 1800.311 1568.207 Z" fill="#000000" fill-opacity="1" stroke="none"/>
  </g>
  <g id="Regular-L">
   <path id="Path-17" d="M1394.869 1578.168 L1504.781 1578.168 Q1514.253 1578.168 1519.039 1573.432 1523.824 1568.695 1523.824 1559.369 L1523.824 1482.221 Q1523.824 1472.895 1519.039 1468.134 1514.253 1463.373 1504.781 1463.373 L1394.869 1463.373 Q1385.445 1463.373 1380.66 1468.109 1375.875 1472.846 1375.875 1482.221 L1375.875 1559.369 Q1375.875 1568.744 1380.66 1573.456 1385.445 1578.168 1394.869 1578.168 Z M1395.064 1569.525 Q1389.937 1569.525 1387.227 1566.84 1384.517 1564.154 1384.517 1558.881 L1384.517 1482.66 Q1384.517 1477.387 1387.227 1474.701 1389.937 1472.016 1395.064 1472.016 L1504.634 1472.016 Q1509.664 1472.016 1512.398 1474.701 1515.132 1477.387 1515.132 1482.66 L1515.132 1558.881 Q1515.132 1564.154 1512.398 1566.84 1509.664 1569.525 1504.634 1569.525 Z" fill="#000000" fill-opacity="1" stroke="none"/>
  </g>
  <g id="Light-L">
   <path id="Path-18" d="M1097.563 1577.338 L1208.647 1577.338 Q1217.583 1577.338 1222.124 1572.797 1226.665 1568.256 1226.665 1559.467 L1226.665 1482.074 Q1226.665 1473.285 1222.124 1468.744 1217.583 1464.203 1208.647 1464.203 L1097.563 1464.203 Q1088.677 1464.203 1084.135 1468.72 1079.594 1473.236 1079.594 1482.074 L1079.594 1559.467 Q1079.594 1568.305 1084.135 1572.821 1088.677 1577.338 1097.563 1577.338 Z M1097.759 1570.697 Q1092.094 1570.697 1089.14 1567.768 1086.186 1564.838 1086.186 1559.125 L1086.186 1482.416 Q1086.186 1476.654 1089.14 1473.725 1092.094 1470.795 1097.759 1470.795 L1208.501 1470.795 Q1214.018 1470.795 1217.021 1473.725 1220.024 1476.654 1220.024 1482.416 L1220.024 1559.125 Q1220.024 1564.838 1217.021 1567.768 1214.018 1570.697 1208.501 1570.697 Z" fill="#000000" fill-opacity="1" stroke="none"/>
  </g>
  <g id="Thin-L">
   <path id="Path-19" d="M800.075 1576.215 L912.721 1576.215 Q920.925 1576.215 925.148 1571.918 929.372 1567.621 929.372 1559.613 L929.372 1481.879 Q929.372 1473.822 925.148 1469.55 920.925 1465.277 912.721 1465.277 L800.075 1465.277 Q791.921 1465.277 787.697 1469.501 783.474 1473.725 783.474 1481.879 L783.474 1559.613 Q783.474 1567.768 787.697 1571.991 791.921 1576.215 800.075 1576.215 Z M800.221 1572.26 Q793.923 1572.26 790.676 1569.013 787.428 1565.766 787.428 1559.418 L787.428 1482.074 Q787.428 1475.678 790.676 1472.431 793.923 1469.184 800.221 1469.184 L912.575 1469.184 Q918.727 1469.184 922.072 1472.431 925.417 1475.678 925.417 1482.074 L925.417 1559.418 Q925.417 1565.766 922.072 1569.013 918.727 1572.26 912.575 1572.26 Z" fill="#000000" fill-opacity="1" stroke="none"/>
  </g>
  <g id="Ultralight-L">
   <path id="Path-20" d="M502.997 1575.629 L616.425 1575.629 Q624.238 1575.629 628.29 1571.479 632.343 1567.328 632.343 1559.711 L632.343 1481.781 Q632.343 1474.115 628.29 1469.965 624.238 1465.814 616.425 1465.814 L502.997 1465.814 Q495.185 1465.814 491.132 1469.892 487.08 1473.969 487.08 1481.781 L487.08 1559.711 Q487.08 1567.475 491.132 1571.552 495.185 1575.629 502.997 1575.629 Z M503.144 1573.09 Q496.455 1573.09 493.037 1569.672 489.619 1566.254 489.619 1559.564 L489.619 1481.879 Q489.619 1475.189 493.037 1471.796 496.455 1468.402 503.144 1468.402 L616.279 1468.402 Q622.724 1468.402 626.264 1471.796 629.804 1475.189 629.804 1481.879 L629.804 1559.564 Q629.804 1566.254 626.264 1569.672 622.724 1573.09 616.279 1573.09 Z" fill="#000000" fill-opacity="1" stroke="none"/>
  </g>
  <g id="Black-M">
   <path id="Path-21" d="M2893.552 1139.232 L2973.239 1139.232 Q2982.272 1139.232 2987.326 1134.179 2992.38 1129.125 2992.38 1120.092 L2992.38 1061.547 Q2992.38 1052.465 2987.326 1047.436 2982.272 1042.406 2973.239 1042.406 L2893.552 1042.406 Q2884.519 1042.406 2879.465 1047.436 2874.411 1052.465 2874.411 1061.547 L2874.411 1120.092 Q2874.411 1129.125 2879.465 1134.179 2884.519 1139.232 2893.552 1139.232 Z M2896.188 1121.898 Q2893.942 1121.898 2892.844 1120.873 2891.745 1119.848 2891.745 1117.406 L2891.745 1064.184 Q2891.745 1061.742 2892.844 1060.741 2893.942 1059.74 2896.188 1059.74 L2970.603 1059.74 Q2972.849 1059.74 2973.947 1060.741 2975.046 1061.742 2975.046 1064.184 L2975.046 1117.406 Q2975.046 1119.848 2973.947 1120.873 2972.849 1121.898 2970.603 1121.898 Z" fill="#000000" fill-opacity="1" stroke="none"/>
  </g>
  <g id="Heavy-M">
   <path id="Path-22" d="M2596.313 1138.402 L2677.123 1138.402 Q2685.815 1138.402 2690.576 1133.642 2695.336 1128.881 2695.336 1120.238 L2695.336 1061.4 Q2695.336 1052.709 2690.576 1047.973 2685.815 1043.236 2677.123 1043.236 L2596.313 1043.236 Q2587.573 1043.236 2582.812 1047.948 2578.051 1052.66 2578.051 1061.4 L2578.051 1120.238 Q2578.051 1128.881 2582.812 1133.642 2587.573 1138.402 2596.313 1138.402 Z M2598.315 1123.314 Q2595.727 1123.314 2594.433 1122.069 2593.139 1120.824 2593.139 1118.041 L2593.139 1063.549 Q2593.139 1060.766 2594.433 1059.545 2595.727 1058.324 2598.315 1058.324 L2675.073 1058.324 Q2677.661 1058.324 2678.954 1059.545 2680.248 1060.766 2680.248 1063.549 L2680.248 1118.041 Q2680.248 1120.824 2678.954 1122.069 2677.661 1123.314 2675.073 1123.314 Z" fill="#000000" fill-opacity="1" stroke="none"/>
  </g>
  <g id="Bold-M">
   <path id="Path-23" d="M2298.938 1137.475 L2381.018 1137.475 Q2389.416 1137.475 2393.835 1133.056 2398.254 1128.637 2398.254 1120.336 L2398.254 1061.254 Q2398.254 1052.953 2393.835 1048.534 2389.416 1044.115 2381.018 1044.115 L2298.938 1044.115 Q2290.588 1044.115 2286.145 1048.51 2281.701 1052.904 2281.701 1061.254 L2281.701 1120.336 Q2281.701 1128.637 2286.145 1133.056 2290.588 1137.475 2298.938 1137.475 Z M2300.305 1124.877 Q2297.375 1124.877 2295.837 1123.388 2294.299 1121.898 2294.299 1118.773 L2294.299 1062.768 Q2294.299 1059.643 2295.837 1058.178 2297.375 1056.713 2300.305 1056.713 L2379.65 1056.713 Q2382.58 1056.713 2384.118 1058.178 2385.656 1059.643 2385.656 1062.768 L2385.656 1118.773 Q2385.656 1121.898 2384.118 1123.388 2382.58 1124.877 2379.65 1124.877 Z" fill="#000000" fill-opacity="1" stroke="none"/>
  </g>
  <g id="Semibold-M">
   <path id="Path-24" d="M2001.814 1136.84 L2084.773 1136.84 Q2092.878 1136.84 2097.078 1132.641 2101.277 1128.441 2101.277 1120.482 L2101.277 1061.156 Q2101.277 1053.148 2097.078 1048.949 2092.878 1044.75 2084.773 1044.75 L2001.814 1044.75 Q1993.708 1044.75 1989.485 1048.925 1985.261 1053.1 1985.261 1061.156 L1985.261 1120.482 Q1985.261 1128.441 1989.485 1132.641 1993.708 1136.84 2001.814 1136.84 Z M2002.693 1125.951 Q1999.519 1125.951 1997.834 1124.315 1996.15 1122.68 1996.15 1119.311 L1996.15 1062.279 Q1996.15 1058.91 1997.834 1057.25 1999.519 1055.59 2002.693 1055.59 L2083.845 1055.59 Q2087.019 1055.59 2088.728 1057.25 2090.437 1058.91 2090.437 1062.279 L2090.437 1119.311 Q2090.437 1122.68 2088.728 1124.315 2087.019 1125.951 2083.845 1125.951 Z" fill="#000000" fill-opacity="1" stroke="none"/>
  </g>
  <g id="Medium-M">
   <path id="Path-25" d="M1704.757 1136.352 L1788.351 1136.352 Q1796.31 1136.352 1800.338 1132.348 1804.366 1128.344 1804.366 1120.531 L1804.366 1061.059 Q1804.366 1053.246 1800.338 1049.218 1796.31 1045.189 1788.351 1045.189 L1704.757 1045.189 Q1696.847 1045.189 1692.794 1049.218 1688.741 1053.246 1688.741 1061.059 L1688.741 1120.531 Q1688.741 1128.344 1692.794 1132.348 1696.847 1136.352 1704.757 1136.352 Z M1705.294 1126.781 Q1701.925 1126.781 1700.118 1125.023 1698.312 1123.266 1698.312 1119.701 L1698.312 1061.889 Q1698.312 1058.324 1700.118 1056.542 1701.925 1054.76 1705.294 1054.76 L1787.813 1054.76 Q1791.183 1054.76 1793.014 1056.542 1794.845 1058.324 1794.845 1061.889 L1794.845 1119.701 Q1794.845 1123.266 1793.014 1125.023 1791.183 1126.781 1787.813 1126.781 Z" fill="#000000" fill-opacity="1" stroke="none"/>
  </g>
  <g id="Regular-M">
   <path id="Path-26" d="M1407.603 1135.717 L1492.076 1135.717 Q1499.791 1135.717 1503.599 1131.933 1507.408 1128.148 1507.408 1120.629 L1507.408 1060.961 Q1507.408 1053.441 1503.599 1049.633 1499.791 1045.824 1492.076 1045.824 L1407.603 1045.824 Q1399.937 1045.824 1396.104 1049.608 1392.271 1053.393 1392.271 1060.961 L1392.271 1120.629 Q1392.271 1128.148 1396.104 1131.933 1399.937 1135.717 1407.603 1135.717 Z M1407.701 1127.855 Q1404.039 1127.855 1402.086 1125.927 1400.132 1123.998 1400.132 1120.189 L1400.132 1061.4 Q1400.132 1057.592 1402.086 1055.639 1404.039 1053.686 1407.701 1053.686 L1491.978 1053.686 Q1495.591 1053.686 1497.569 1055.639 1499.547 1057.592 1499.547 1061.4 L1499.547 1120.189 Q1499.547 1123.998 1497.569 1125.927 1495.591 1127.855 1491.978 1127.855 Z" fill="#000000" fill-opacity="1" stroke="none"/>
   <path id="Path-copy-2" d="M1490 1097.364 C1490 1096.108 1489.579 1095.067 1488.737 1094.24 1487.895 1093.413 1486.922 1093 1485.82 1093 1484.687 1093 1483.715 1093.429 1482.903 1094.286 1482.092 1095.144 1481.686 1096.108 1481.686 1097.18 L1481.686 1107.175 1481.328 1105.618 C1481.328 1105.618 1481.418 1107.678 1480.443 1108.657 1479.509 1109.596 1477.596 1109.668 1477.596 1109.668 L1455.091 1109.76 1456.106 1109.76 C1455.035 1109.76 1454.078 1110.165 1453.236 1110.977 1452.394 1111.788 1451.973 1112.745 1451.973 1113.848 1451.973 1114.95 1452.371 1115.922 1453.167 1116.764 1453.963 1117.606 1455.004 1118.027 1456.29 1118.027 L1485.499 1118.027 C1486.877 1118.027 1487.964 1117.614 1488.76 1116.787 1489.556 1115.96 1489.954 1114.889 1489.954 1113.572 Z" fill="#000000" fill-opacity="1" stroke="none"/>
   <path id="Path-copy-4" d="M1409 1083.636 C1409 1084.892 1409.421 1085.933 1410.263 1086.76 1411.105 1087.587 1412.078 1088 1413.18 1088 1414.313 1088 1415.285 1087.571 1416.097 1086.714 1416.908 1085.856 1417.314 1084.892 1417.314 1083.82 L1417.314 1073.825 1417.672 1075.382 C1417.672 1075.382 1417.582 1073.322 1418.557 1072.343 1419.491 1071.404 1421.404 1071.332 1421.404 1071.332 L1443.909 1071.24 1442.894 1071.24 C1443.965 1071.24 1444.922 1070.835 1445.764 1070.023 1446.606 1069.212 1447.027 1068.255 1447.027 1067.152 1447.027 1066.05 1446.629 1065.078 1445.833 1064.236 1445.037 1063.394 1443.996 1062.973 1442.71 1062.973 L1413.501 1062.973 C1412.123 1062.973 1411.036 1063.386 1410.24 1064.213 1409.444 1065.04 1409.046 1066.111 1409.046 1067.428 Z" fill="#000000" fill-opacity="1" stroke="none"/>
  </g>
  <g id="Light-M">
   <path id="Path-27" d="M1110.355 1134.984 L1195.902 1134.984 Q1203.08 1134.984 1206.693 1131.371 1210.307 1127.758 1210.307 1120.727 L1210.307 1060.814 Q1210.307 1053.783 1206.693 1050.17 1203.08 1046.557 1195.902 1046.557 L1110.355 1046.557 Q1103.178 1046.557 1099.564 1050.146 1095.951 1053.734 1095.951 1060.814 L1095.951 1120.727 Q1095.951 1127.807 1099.564 1131.396 1103.178 1134.984 1110.355 1134.984 Z M1110.453 1128.93 Q1106.303 1128.93 1104.154 1126.781 1102.006 1124.633 1102.006 1120.385 L1102.006 1061.156 Q1102.006 1056.908 1104.154 1054.76 1106.303 1052.611 1110.453 1052.611 L1195.805 1052.611 Q1199.809 1052.611 1202.03 1054.76 1204.252 1056.908 1204.252 1061.156 L1204.252 1120.385 Q1204.252 1124.633 1202.03 1126.781 1199.809 1128.93 1195.805 1128.93 Z" fill="#000000" fill-opacity="1" stroke="none"/>
  </g>
  <g id="Thin-M">
   <path id="Path-28" d="M812.892 1133.959 L899.855 1133.959 Q906.398 1133.959 909.743 1130.59 913.087 1127.221 913.087 1120.824 L913.087 1060.668 Q913.087 1054.271 909.743 1050.902 906.398 1047.533 899.855 1047.533 L812.892 1047.533 Q806.447 1047.533 803.102 1050.878 799.757 1054.223 799.757 1060.668 L799.757 1120.824 Q799.757 1127.318 803.102 1130.639 806.447 1133.959 812.892 1133.959 Z M813.038 1130.346 Q808.302 1130.346 805.861 1127.904 803.419 1125.463 803.419 1120.629 L803.419 1060.814 Q803.419 1056.029 805.861 1053.588 808.302 1051.146 813.038 1051.146 L899.757 1051.146 Q904.396 1051.146 906.91 1053.588 909.425 1056.029 909.425 1060.814 L909.425 1120.629 Q909.425 1125.463 906.91 1127.904 904.396 1130.346 899.757 1130.346 Z" fill="#000000" fill-opacity="1" stroke="none"/>
  </g>
  <g id="Ultralight-M">
   <path id="Path-29" d="M515.814 1133.471 L603.509 1133.471 Q609.711 1133.471 612.909 1130.224 616.107 1126.977 616.107 1120.922 L616.107 1060.57 Q616.107 1054.516 612.909 1051.269 609.711 1048.021 603.509 1048.021 L515.814 1048.021 Q509.711 1048.021 506.512 1051.22 503.314 1054.418 503.314 1060.57 L503.314 1120.922 Q503.314 1127.074 506.512 1130.272 509.711 1133.471 515.814 1133.471 Z M515.961 1131.078 Q510.883 1131.078 508.295 1128.466 505.707 1125.854 505.707 1120.775 L505.707 1060.668 Q505.707 1055.59 508.295 1053.002 510.883 1050.414 515.961 1050.414 L603.412 1050.414 Q608.295 1050.414 610.98 1053.002 613.666 1055.59 613.666 1060.668 L613.666 1120.775 Q613.666 1125.854 610.98 1128.466 608.295 1131.078 603.412 1131.078 Z" fill="#000000" fill-opacity="1" stroke="none"/>
  </g>
  <g id="Black-S">
   <path id="Path-30" d="M2902.35 698.93 L2964.459 698.93 Q2971.637 698.93 2975.666 694.901 2979.694 690.873 2979.694 683.695 L2979.694 637.895 Q2979.694 630.717 2975.666 626.688 2971.637 622.66 2964.459 622.66 L2902.35 622.66 Q2895.172 622.66 2891.144 626.688 2887.116 630.717 2887.116 637.895 L2887.116 683.695 Q2887.116 690.873 2891.144 694.901 2895.172 698.93 2902.35 698.93 Z M2904.596 684.77 Q2902.936 684.77 2902.106 684.013 2901.276 683.256 2901.276 681.449 L2901.276 640.141 Q2901.276 638.285 2902.106 637.553 2902.936 636.82 2904.596 636.82 L2962.213 636.82 Q2963.922 636.82 2964.728 637.553 2965.534 638.285 2965.534 640.141 L2965.534 681.449 Q2965.534 683.256 2964.728 684.013 2963.922 684.77 2962.213 684.77 Z" fill="#000000" fill-opacity="1" stroke="none"/>
  </g>
  <g id="Heavy-S">
   <path id="Path-31" d="M2605.245 698.344 L2668.185 698.344 Q2675.167 698.344 2678.951 694.535 2682.735 690.727 2682.735 683.793 L2682.735 637.797 Q2682.735 630.863 2678.951 627.055 2675.167 623.246 2668.185 623.246 L2605.245 623.246 Q2598.263 623.246 2594.454 627.055 2590.646 630.863 2590.646 637.797 L2590.646 683.793 Q2590.646 690.727 2594.454 694.535 2598.263 698.344 2605.245 698.344 Z M2606.954 685.844 Q2605.05 685.844 2604.098 684.94 2603.146 684.037 2603.146 681.986 L2603.146 639.604 Q2603.146 637.504 2604.098 636.625 2605.05 635.746 2606.954 635.746 L2666.427 635.746 Q2668.38 635.746 2669.332 636.625 2670.284 637.504 2670.284 639.604 L2670.284 681.986 Q2670.284 684.037 2669.332 684.94 2668.38 685.844 2666.427 685.844 Z" fill="#000000" fill-opacity="1" stroke="none"/>
  </g>
  <g id="Bold-S">
   <path id="Path-32" d="M2308.043 697.66 L2371.91 697.66 Q2378.648 697.66 2382.213 694.096 2385.777 690.531 2385.777 683.891 L2385.777 637.699 Q2385.777 631.01 2382.213 627.47 2378.648 623.93 2371.91 623.93 L2308.043 623.93 Q2301.353 623.93 2297.764 627.47 2294.176 631.01 2294.176 637.699 L2294.176 683.891 Q2294.176 690.531 2297.764 694.096 2301.353 697.66 2308.043 697.66 Z M2309.215 687.016 Q2307.066 687.016 2305.919 685.941 2304.771 684.867 2304.771 682.572 L2304.771 638.969 Q2304.771 636.674 2305.919 635.6 2307.066 634.525 2309.215 634.525 L2370.738 634.525 Q2372.935 634.525 2374.058 635.6 2375.181 636.674 2375.181 638.969 L2375.181 682.572 Q2375.181 684.867 2374.058 685.941 2372.935 687.016 2370.738 687.016 Z" fill="#000000" fill-opacity="1" stroke="none"/>
  </g>
  <g id="Semibold-S">
   <path id="Path-33" d="M2010.996 697.221 L2075.547 697.221 Q2082.138 697.221 2085.507 693.827 2088.877 690.434 2088.877 683.939 L2088.877 637.65 Q2088.877 631.156 2085.507 627.763 2082.138 624.369 2075.547 624.369 L2010.996 624.369 Q2004.502 624.369 2001.084 627.763 1997.666 631.156 1997.666 637.65 L1997.666 683.939 Q1997.666 690.434 2001.084 693.827 2004.502 697.221 2010.996 697.221 Z M2011.777 687.846 Q2009.433 687.846 2008.188 686.649 2006.943 685.453 2006.943 683.012 L2006.943 638.578 Q2006.943 636.088 2008.188 634.916 2009.433 633.744 2011.777 633.744 L2074.765 633.744 Q2077.109 633.744 2078.354 634.916 2079.599 636.088 2079.599 638.578 L2079.599 683.012 Q2079.599 685.453 2078.354 686.649 2077.109 687.846 2074.765 687.846 Z" fill="#000000" fill-opacity="1" stroke="none"/>
  </g>
  <g id="Medium-S">
   <path id="Path-34" d="M1714.035 696.83 L1779.074 696.83 Q1785.519 696.83 1788.766 693.583 1792.014 690.336 1792.014 684.037 L1792.014 637.553 Q1792.014 631.254 1788.766 628.007 1785.519 624.76 1779.074 624.76 L1714.035 624.76 Q1707.687 624.76 1704.391 628.007 1701.096 631.254 1701.096 637.553 L1701.096 684.037 Q1701.096 690.336 1704.391 693.583 1707.687 696.83 1714.035 696.83 Z M1714.523 688.48 Q1712.082 688.48 1710.739 687.187 1709.396 685.893 1709.396 683.354 L1709.396 638.236 Q1709.396 635.648 1710.739 634.379 1712.082 633.109 1714.523 633.109 L1778.586 633.109 Q1781.076 633.109 1782.394 634.379 1783.713 635.648 1783.713 638.236 L1783.713 683.354 Q1783.713 685.893 1782.394 687.187 1781.076 688.48 1778.586 688.48 Z" fill="#000000" fill-opacity="1" stroke="none"/>
  </g>
  <g id="Regular-S">
   <path id="Path-35" d="M1417.007 696.391 L1482.681 696.391 Q1488.979 696.391 1492.056 693.314 1495.132 690.238 1495.132 684.086 L1495.132 637.504 Q1495.132 631.352 1492.056 628.275 1488.979 625.199 1482.681 625.199 L1417.007 625.199 Q1410.806 625.199 1407.681 628.275 1404.556 631.352 1404.556 637.504 L1404.556 684.086 Q1404.556 690.238 1407.681 693.314 1410.806 696.391 1417.007 696.391 Z M1417.104 689.311 Q1414.468 689.311 1413.027 687.895 1411.587 686.479 1411.587 683.744 L1411.587 637.846 Q1411.587 635.063 1413.027 633.671 1414.468 632.279 1417.104 632.279 L1482.583 632.279 Q1485.22 632.279 1486.66 633.671 1488.101 635.063 1488.101 637.846 L1488.101 683.744 Q1488.101 686.479 1486.66 687.895 1485.22 689.311 1482.583 689.311 Z" fill="#000000" fill-opacity="1" stroke="none"/>
  </g>
  <g id="Light-S">
   <path id="Path-36" d="M1119.807 695.707 L1186.408 695.707 Q1192.268 695.707 1195.173 692.802 1198.078 689.896 1198.078 684.184 L1198.078 637.406 Q1198.078 631.693 1195.173 628.764 1192.268 625.834 1186.408 625.834 L1119.807 625.834 Q1114.045 625.834 1111.115 628.739 1108.186 631.645 1108.186 637.406 L1108.186 684.184 Q1108.186 689.896 1111.115 692.802 1114.045 695.707 1119.807 695.707 Z M1119.904 690.238 Q1116.877 690.238 1115.241 688.627 1113.606 687.016 1113.606 683.891 L1113.606 637.65 Q1113.606 634.477 1115.241 632.89 1116.877 631.303 1119.904 631.303 L1186.311 631.303 Q1189.338 631.303 1190.998 632.89 1192.658 634.477 1192.658 637.65 L1192.658 683.891 Q1192.658 687.016 1190.998 688.627 1189.338 690.238 1186.311 690.238 Z" fill="#000000" fill-opacity="1" stroke="none"/>
  </g>
  <g id="Thin-S">
   <path id="Path-37" d="M822.487 694.828 L890.358 694.828 Q895.582 694.828 898.243 692.118 900.905 689.408 900.905 684.281 L900.905 637.211 Q900.905 632.084 898.243 629.398 895.582 626.713 890.358 626.713 L822.487 626.713 Q817.262 626.713 814.601 629.374 811.94 632.035 811.94 637.211 L811.94 684.281 Q811.94 689.506 814.601 692.167 817.262 694.828 822.487 694.828 Z M822.584 691.508 Q818.971 691.508 817.115 689.652 815.26 687.797 815.26 684.135 L815.26 637.406 Q815.26 633.744 817.115 631.889 818.971 630.033 822.584 630.033 L890.26 630.033 Q893.776 630.033 895.68 631.889 897.584 633.744 897.584 637.406 L897.584 684.135 Q897.584 687.797 895.68 689.652 893.776 691.508 890.26 691.508 Z" fill="#000000" fill-opacity="1" stroke="none"/>
  </g>
  <g id="Ultralight-S">
   <path id="Path-38" d="M525.482 694.34 L593.939 694.34 Q598.92 694.34 601.435 691.776 603.949 689.213 603.949 684.379 L603.949 637.162 Q603.949 632.328 601.435 629.74 598.92 627.152 593.939 627.152 L525.482 627.152 Q520.551 627.152 518.012 629.691 515.473 632.23 515.473 637.162 L515.473 684.379 Q515.473 689.262 518.012 691.801 520.551 694.34 525.482 694.34 Z M525.58 692.143 Q521.674 692.143 519.672 690.141 517.67 688.139 517.67 684.232 L517.67 637.26 Q517.67 633.354 519.672 631.352 521.674 629.35 525.58 629.35 L593.842 629.35 Q597.65 629.35 599.701 631.352 601.752 633.354 601.752 637.26 L601.752 684.232 Q601.752 688.139 599.701 690.141 597.65 692.143 593.842 692.143 Z" fill="#000000" fill-opacity="1" stroke="none"/>
  </g>
 </g>
</svg>
